# AST/ASF file generated using VICON BodyLanguage
# -----------------------------------------------
:version 1.10
:name VICON
:units
  mass 1.0
  length 0.45
  angle deg
:documentation
   .ast/.asf automatically generated from VICON data using
   VICON BodyBuilder and BodyLanguage model FoxedUp or BRILLIANT.MOD
:root
   order TX TY TZ RX RY RZ
   axis XYZ
   position 0 0 0  
   orientation 0 0 0 
:bonedata
  begin
     id 1 
     name lhipjoint
     direction 0.602128 -0.715006 0.355257 
     length 2.21237 
     axis 0 0 0  XYZ
  end
  begin
     id 2 
     name lfemur
     direction 0.34202 -0.939693 0  
     length 6.71649  
     axis 0 0 20  XYZ
    dof rx ry rz
    limits (-160.0 20.0)
           (-70.0 70.0)
           (-60.0 70.0)
  end
  begin
     id 3 
     name ltibia
     direction 0.34202 -0.939693 0   
     length 6.97123   
     axis 0 0 20   XYZ
    dof rx
    limits (-10.0 170.0)
  end
  begin
     id 4 
     name lfoot
     direction 0.0655697 -0.180151 0.981451   
     length 1.80924   
     axis -90 7.62852e-016 20   XYZ
    dof rx rz
    limits (-45.0 90.0)
           (-70.0 20.0)
  end
  begin
     id 5 
     name ltoes
     direction 1.53545e-011 -4.21827e-011 1   
     length 0.916331   
     axis -90 7.62852e-016 20   XYZ
    dof rx
    limits (-90.0 20.0)
  end
  begin
     id 6 
     name rhipjoint
     direction -0.625414 -0.698792 0.347201   
     length 2.2637  
     axis 0 0 0  XYZ 
  end
  begin
     id 7 
     name rfemur
     direction -0.34202 -0.939693 0   
     length 7.07595   
     axis 0 0 -20   XYZ
    dof rx ry rz
    limits (-160.0 20.0)
           (-70.0 70.0)
           (-70.0 60.0)
  end
  begin
     id 8 
     name rtibia
     direction -0.34202 -0.939693 0   
     length 7.22924   
     axis 0 0 -20   XYZ
    dof rx
    limits (-10.0 170.0)
 end
 begin
     id 9 
     name rfoot
     direction -0.0766747 -0.210662 0.974547   
     length 1.98482  
     axis -90 -7.62852e-016 -20   XYZ
    dof rx rz
    limits (-45.0 90.0)
           (-20.0 70.0)
  end
  begin
     id 10 
     name rtoes
     direction -1.53532e-011 -4.21867e-011 1   
     length 0.999842   
     axis -90 -7.62852e-016 -20   XYZ
    dof rx
    limits (-90.0 20.0)
  end
  begin
     id 11 
     name lowerback
     direction -0.0224668 0.997354 -0.0691422   
     length 2.09945   
     axis 0 0 0   XYZ
    dof rx ry rz
    limits (-20.0 45.0)
           (-30.0 30.0)
           (-30.0 30.0)
  end
  begin
     id 12 
     name upperback
     direction 0.0134698 0.998451 -0.0539888   
     length 2.09758   
     axis 0 0 0   XYZ
    dof rx ry rz
    limits (-20.0 45.0)
           (-30.0 30.0)
           (-30.0 30.0)
  end
  begin
     id 13 
     name thorax
     direction 0.0241905 0.99948 -0.0213333   
     length 2.10428   
     axis 0 0 0   XYZ
    dof rx ry rz
    limits (-20.0 45.0)
           (-30.0 30.0)
           (-30.0 30.0)
  end
  begin
     id 14 
     name lowerneck
     direction -0.00866847 0.995978 0.0891737   
     length 1.3959   
     axis 0 0 0   XYZ
    dof rx ry rz
    limits (-20.0 45.0)
           (-30.0 30.0)
           (-30.0 30.0)
  end
  begin
     id 15 
     name upperneck
     direction 0.0680679 0.992203 0.104404   
     length 1.39452   
     axis 0 0 0   XYZ
    dof rx ry rz
    limits (-20.0 45.0)
           (-30.0 30.0)
           (-30.0 30.0)
  end
  begin
     id 16
     name head
     direction 0.0242216 0.999358 0.0264054  
     length 1.40433  
     axis 0 0 0   XYZ
    dof rx ry rz
    limits (-20.0 45.0)
           (-30.0 30.0)
           (-30.0 30.0)
  end
  begin
     id 17 
     name lclavicle
     direction 0.929368 0.362991 -0.0671771  
     length 3.04887  
     axis 0 0 0   XYZ
    dof ry rz
    limits (-20.0 10.0)
           (0.0 20.0)
  end
  begin
     id 18 
     name lhumerus
     direction 1 -4.48967e-011 -7.13741e-028   
     length 4.77195   
     axis -180 -30 -90   XYZ
    dof rx ry rz
    limits (-60.0 90.0)
           (-90.0 90.0)
           (-90.0 90.0)
  end
  begin
     id 19
     name lradius
     direction 1 -4.48977e-011 3.60404e-027   
     length 2.98444   
     axis -180 -30 -90   XYZ
    dof rx
    limits (-10.0 170.0)
  end
  begin
     id 20
     name lwrist
     direction 1 -4.48997e-011 7.54877e-027   
     length 1.49222   
     axis -7.18178e-015 90 90   XYZ
    dof ry
    limits (-180.0 0.0)
 end
  begin
     id 21 
     name lhand
     direction 1 -4.489e-011 1.51105e-026   
     length 0.992285   
     axis -9.63605e-015 90 90   XYZ
    dof rx rz
    limits (-90.0 90.0)
           (-45.0 45.0)
  end
  begin
     id 22 
     name lfingers
     direction 1 -4.48998e-011 3.01948e-026   
     length 0.800006   
     axis -1.92718e-014 90 90   XYZ
    dof rx
    limits (0.0 90.0)
  end
  begin
     id 23
     name lthumb
     direction 0.707107 -6.34881e-011 0.707107   
     length 1.14865   
     axis -90 45 -3.53137e-014   XYZ
    dof rx rz
    limits (-45.0 45.0)
           (-45.0 45.0)
  end
  begin
     id 24 
     name rclavicle
     direction -0.945672 0.324529 0.0196374   
     length 3.4236  
     axis 0 0 0   XYZ 
    dof ry rz
    limits (-10.0 20.0)
           (-20.0 0.0)
  end
  begin
     id 25 
     name rhumerus
     direction -1 -4.4896e-011 1.02757e-029  
     length 4.62052   
     axis -180 30 90   XYZ
    dof rx ry rz
    limits (-90.0 60.0)
           (-90.0 90.0)
           (-90.0 90.0)
  end
  begin
     id 26 
     name rradius
     direction -1 -4.48982e-011 3.85962e-027   
     length 2.95332   
     axis -180 30 90   XYZ
    dof rx
    limits (-10.0 170.0)
  end
  begin
     id 27 
     name rwrist
     direction -1 -4.48961e-011 7.55118e-027   
     length 1.47666   
     axis -7.18178e-015 -90 -90   XYZ
    dof ry
    limits (-180.0 0.0)
  end
  begin
     id 28
     name rhand
     direction -1 -4.48984e-011 1.50994e-026   
     length 0.990956   
     axis -9.63605e-015 -90 -90   XYZ
    dof rx rz
    limits (-90.0 90.0)
           (-45.0 45.0)
  end
  begin
     id 29
     name rfingers
     direction -1 -4.4892e-011 3.02158e-026   
     length 0.798934   
     axis -1.92718e-014 -90 -90   XYZ
    dof rx
    limits (0.0 90.0)
  end
  begin
     id 30
     name rthumb
     direction -0.707107 -6.34916e-011 0.707107   
     length 1.14711   
     axis -90 -45 3.53137e-014   XYZ
    dof rx rz
    limits (-45.0 45.0)
           (-45.0 45.0)
  end
:hierarchy
  begin
    root lhipjoint rhipjoint lowerback
    lhipjoint lfemur
    lfemur ltibia
    ltibia lfoot
    lfoot ltoes
    rhipjoint rfemur
    rfemur rtibia
    rtibia rfoot
    rfoot rtoes
    lowerback upperback
    upperback thorax
    thorax lowerneck lclavicle rclavicle
    lowerneck upperneck
    upperneck head
    lclavicle lhumerus
    lhumerus lradius
    lradius lwrist
    lwrist lhand lthumb
    lhand lfingers
    rclavicle rhumerus
    rhumerus rradius
    rradius rwrist
    rwrist rhand rthumb
    rhand rfingers
  end

#!OML:ASF H:\ManfredObstacles\Project 1\Capture day 1\Session 1\Male.ASF
:FULLY-SPECIFIED
:DEGREES
64
root 0.314998 16.2617 30.7524 -166.814 -10.8929 -176.739
lowerback -11.6755 -2.2084 -0.915098
upperback 1.31122 -3.0796 2.61609
thorax 8.15825 -1.62891 2.7216
lowerneck 1.3298 -2.11915 -4.98183
upperneck -6.98261 -2.73859 8.86945
head -2.29423 -1.59158 3.8974
rclavicle -2.19906e-015 -2.31584e-014
rhumerus -39.6517 -29.9282 -69.2244
rradius 23.8573
rwrist 35.9788
rhand -3.29971 -10.0655
rfingers 7.12502
rthumb 22.4263 -38.7836
lclavicle -2.19906e-015 -2.31584e-014
lhumerus -25.3568 8.70145 87.135
lradius 16.1597
lwrist -33.314
lhand -8.05387 9.2605
lfingers 7.12502
lthumb 17.857 38.4607
rfemur -29.5457 -7.63611 25.0066
rtibia 28.755
rfoot -14.3241 12.7105
rtoes 26.2787
lfemur 2.2035 -4.40705 -14.5269
ltibia 9.54166e-015
lfoot -8.0495 -0.085609
ltoes -30.2176
65
root 0.349083 16.2645 30.6952 -166.814 -10.9454 -176.777
lowerback -11.6484 -2.22785 -0.846173
upperback 1.27931 -3.11059 2.57563
thorax 8.10375 -1.63889 2.63483
lowerneck 1.33937 -2.07638 -4.92047
upperneck -6.96809 -2.6821 8.78537
head -2.29664 -1.56175 3.85468
rclavicle -3.60297e-015 -6.4605e-015
rhumerus -39.6645 -29.8348 -69.3213
rradius 23.8414
rwrist 35.8531
rhand -3.37059 -10.1908
rfingers 7.12502
rthumb 22.3583 -38.9171
lclavicle -3.60297e-015 -6.4605e-015
lhumerus -25.4352 8.99026 86.9665
lradius 16.1655
lwrist -33.604
lhand -7.98219 9.1099
lfingers 7.12502
lthumb 17.926 38.3038
rfemur -29.3545 -7.91069 25.1771
rtibia 28.7489
rfoot -14.2954 13.0679
rtoes 26.9091
lfemur 2.37237 -4.46571 -14.4017
ltibia 0
lfoot -7.7741 0.0522123
ltoes -30.1586
66
root 0.38469 16.2697 30.6429 -166.791 -11.0833 -176.917
lowerback -11.5722 -2.30908 -0.897933
upperback 1.2613 -3.20584 2.53988
thorax 8.04689 -1.68537 2.61074
lowerneck 1.30123 -2.04249 -4.83704
upperneck -6.99005 -2.63803 8.63911
head -2.30186 -1.53695 3.78568
rclavicle -3.84524e-014 -1.63997e-014
rhumerus -39.5711 -29.5624 -69.5435
rradius 23.9127
rwrist 35.4299
rhand -3.49273 -10.1796
rfingers 7.12502
rthumb 22.241 -38.9199
lclavicle -3.84524e-014 -1.63997e-014
lhumerus -25.4153 8.65614 87.0723
lradius 16.1679
lwrist -33.2749
lhand -8.12718 9.06101
lfingers 7.12502
lthumb 17.7865 38.2676
rfemur -29.1843 -8.03686 25.2067
rtibia 28.7813
rfoot -14.5836 13.114
rtoes 27.1169
lfemur 2.50042 -4.63061 -14.3498
ltibia -1.90833e-014
lfoot -7.47495 0.154958
ltoes -29.4275
67
root 0.422504 16.2775 30.5919 -166.738 -11.2124 -176.988
lowerback -11.5449 -2.37999 -0.901303
upperback 1.25672 -3.29745 2.52366
thorax 8.03077 -1.72913 2.57915
lowerneck 1.16785 -2.01094 -4.80606
upperneck -6.90187 -2.59744 8.55545
head -2.25161 -1.51074 3.74375
rclavicle -3.28492e-014 -2.08724e-015
rhumerus -39.475 -29.5581 -69.5869
rradius 23.904
rwrist 35.3902
rhand -3.55928 -9.85403
rfingers 7.12502
rthumb 22.1771 -38.6019
lclavicle -3.28492e-014 -2.08724e-015
lhumerus -25.2795 8.49715 87.1215
lradius 16.1165
lwrist -33.0471
lhand -8.16954 9.07175
lfingers 7.12502
lthumb 17.7457 38.282
rfemur -29.0746 -7.88915 25.266
rtibia 28.8569
rfoot -15.0518 12.8974
rtoes 26.994
lfemur 2.62149 -4.7673 -14.2081
ltibia -2.54444e-014
lfoot -7.27081 0.238837
ltoes -29.1309
68
root 0.458952 16.2788 30.5398 -166.712 -11.2355 -177.058
lowerback -11.525 -2.39663 -0.908447
upperback 1.25887 -3.31634 2.50662
thorax 8.02213 -1.7378 2.56218
lowerneck 1.12535 -1.9468 -4.82893
upperneck -6.81217 -2.5125 8.54032
head -2.22032 -1.46408 3.73825
rclavicle 7.23079e-015 3.97569e-016
rhumerus -39.4466 -29.6412 -69.4923
rradius 23.9164
rwrist 35.6214
rhand -3.49182 -9.70562
rfingers 7.12502
rthumb 22.2419 -38.4458
lclavicle 7.23079e-015 3.97569e-016
lhumerus -25.1018 8.88747 87.0432
lradius 15.975
lwrist -33.41
lhand -8.05493 9.03569
lfingers 7.12502
lthumb 17.856 38.2359
rfemur -28.9256 -7.66345 25.2857
rtibia 28.9152
rfoot -15.3514 12.7324
rtoes 27.2334
lfemur 2.75884 -4.80426 -14.1047
ltibia 3.18055e-014
lfoot -7.02006 0.309629
ltoes -29.3675
69
root 0.494175 16.2764 30.4865 -166.687 -11.169 -177.204
lowerback -11.513 -2.37738 -1.00191
upperback 1.25492 -3.27301 2.475
thorax 8.01191 -1.71927 2.58997
lowerneck 1.27459 -1.87822 -4.84713
upperneck -6.91581 -2.42027 8.52872
head -2.28951 -1.42127 3.74288
rclavicle -2.7892e-014 -1.98785e-014
rhumerus -39.4503 -29.4053 -69.568
rradius 24.1139
rwrist 35.4082
rhand -3.38108 -9.8882
rfingers 7.12502
rthumb 22.3482 -38.6157
lclavicle -2.7892e-014 -1.98785e-014
lhumerus -24.9984 9.00987 87.1182
lradius 15.9242
lwrist -33.5389
lhand -8.10983 8.96501
lfingers 7.12502
lthumb 17.8032 38.1701
rfemur -28.7669 -7.53026 25.2407
rtibia 28.9741
rfoot -15.6936 12.7001
rtoes 27.5763
lfemur 2.01647 -4.78178 -14.1145
ltibia 1.69344
lfoot -7.44734 0.386544
ltoes -32.3344
70
root 0.530818 16.2789 30.4308 -166.607 -11.15 -177.284
lowerback -11.6057 -2.36593 -0.997872
upperback 1.24832 -3.25636 2.45341
thorax 8.05526 -1.71027 2.56477
lowerneck 1.37592 -1.85506 -4.9015
upperneck -7.0129 -2.38898 8.54752
head -2.34276 -1.40819 3.76473
rclavicle 1.04113e-014 -6.95746e-016
rhumerus -39.3744 -29.0734 -69.7714
rradius 24.3297
rwrist 34.9698
rhand -3.3208 -9.95481
rfingers 7.12502
rthumb 22.4061 -38.6753
lclavicle 1.04113e-014 -6.95746e-016
lhumerus -24.9408 8.79013 87.3052
lradius 16.0066
lwrist -33.3002
lhand -8.18501 8.99229
lfingers 7.12502
lthumb 17.7308 38.2039
rfemur -28.7082 -7.576 25.34
rtibia 29.0788
rfoot -16.1434 12.8075
rtoes 27.4309
lfemur 1.33549 -4.78047 -14.0248
ltibia 3.13827
lfoot -7.71269 0.773279
ltoes -35.378
71
root 0.567912 16.2795 30.3767 -166.532 -11.2405 -177.321
lowerback -11.6354 -2.3861 -0.841997
upperback 1.21548 -3.2997 2.39492
thorax 8.02634 -1.72211 2.40583
lowerneck 1.28385 -1.85514 -5.0031
upperneck -6.82731 -2.38972 8.655
head -2.26256 -1.4034 3.81526
rclavicle -4.64411e-014 2.01766e-014
rhumerus -39.2869 -28.8775 -69.9323
rradius 24.3794
rwrist 34.8251
rhand -3.40554 -9.86559
rfingers 7.12502
rthumb 22.3247 -38.5959
lclavicle -4.64411e-014 2.01766e-014
lhumerus -24.9684 8.19491 87.5279
lradius 16.2543
lwrist -32.7217
lhand -8.07427 9.37584
lfingers 7.12502
lthumb 17.8374 38.5778
rfemur -28.636 -7.56389 25.4677
rtibia 29.1875
rfoot -16.5422 12.7807
rtoes 26.9152
lfemur 0.727115 -4.87208 -13.8405
ltibia 4.52577
lfoot -8.00586 0.904094
ltoes -35.8044
72
root 0.605692 16.2741 30.3267 -166.555 -11.3132 -177.387
lowerback -11.4773 -2.39482 -0.735331
upperback 1.18681 -3.31684 2.31778
thorax 7.89445 -1.7224 2.26662
lowerneck 1.19503 -1.85997 -5.00416
upperneck -6.6342 -2.39701 8.69815
head -2.18098 -1.40241 3.82357
rclavicle -1.71949e-014 1.59028e-014
rhumerus -39.2351 -28.8392 -69.9904
rradius 24.2985
rwrist 34.8778
rhand -3.66301 -9.72898
rfingers 7.12502
rthumb 22.0775 -38.4887
lclavicle -1.71949e-014 1.59028e-014
lhumerus -25.0106 7.45075 87.7848
lradius 16.5383
lwrist -32.1081
lhand -7.99122 9.82306
lfingers 7.12502
lthumb 17.9173 39.0177
rfemur -28.4542 -7.37659 25.4975
rtibia 29.2984
rfoot -16.8453 12.6311
rtoes 26.7014
lfemur 0.253364 -4.96235 -13.6982
ltibia 5.94895
lfoot -8.35096 0.711154
ltoes -36.3423
73
root 0.644848 16.2719 30.2753 -166.575 -11.315 -177.513
lowerback -11.3899 -2.38407 -0.778009
upperback 1.22972 -3.2892 2.2611
thorax 7.888 -1.70839 2.23823
lowerneck 1.21703 -1.87838 -4.87331
upperneck -6.70502 -2.42092 8.59493
head -2.20804 -1.41663 3.76431
rclavicle -5.24667e-014 1.39149e-014
rhumerus -39.0998 -28.9273 -69.9949
rradius 24.2582
rwrist 34.9762
rhand -3.82559 -9.54047
rfingers 7.12502
rthumb 21.9214 -38.3185
lclavicle -5.24667e-014 1.39149e-014
lhumerus -24.882 6.76915 88.0787
lradius 16.709
lwrist -31.541
lhand -8.10961 9.67164
lfingers 7.12502
lthumb 17.8034 38.8767
rfemur -28.2828 -7.24421 25.4777
rtibia 29.4427
rfoot -17.0929 12.666
rtoes 26.9453
lfemur -0.136576 -5.00057 -13.6376
ltibia 7.26468
lfoot -8.54046 0.515678
ltoes -37.2813
74
root 0.684488 16.2736 30.2195 -166.501 -11.2774 -177.837
lowerback -11.4623 -2.45715 -1.07159
upperback 1.30933 -3.33973 2.22371
thorax 8.03299 -1.7442 2.35086
lowerneck 1.12321 -1.86754 -4.86631
upperneck -6.67509 -2.40866 8.44293
head -2.1825 -1.4028 3.70602
rclavicle 1.18525e-014 9.93923e-017
rhumerus -38.7815 -28.7418 -70.1284
rradius 24.3594
rwrist 34.9457
rhand -3.67168 -9.59185
rfingers 7.12502
rthumb 22.0692 -38.3525
lclavicle 1.18525e-014 9.93923e-017
lhumerus -24.6917 6.63489 88.2613
lradius 16.8208
lwrist -31.2278
lhand -8.28385 9.24227
lfingers 7.12502
lthumb 17.6357 38.4625
rfemur -28.157 -7.16407 25.2642
rtibia 29.5781
rfoot -17.3815 12.7135
rtoes 27.0602
lfemur -0.694728 -5.03268 -13.7867
ltibia 8.71691
lfoot -8.62271 0.305039
ltoes -37.4308
